STARTFONT 2.1
FONT -FontForge-Unknown-Medium-R-Normal--7-70-75-75-C-60--0
SIZE 12 101 101
FONTBOUNDINGBOX 7 7 0 -1
COMMENT "Generated by fontforge, http://fontforge.sourceforge.net"
STARTPROPERTIES 9
POINT_SIZE 70
PIXEL_SIZE 7
RESOLUTION_X 75
RESOLUTION_Y 75
FONT_ASCENT 6
FONT_DESCENT 1
AVERAGE_WIDTH 50
SPACING "C"
_GBDFED_INFO "Edited with gbdfed 1.6."
ENDPROPERTIES
CHARS 96
STARTCHAR space
ENCODING 32
SWIDTH 857 0
DWIDTH 6 0
BBX 1 1 6 -1
BITMAP
00
ENDCHAR
STARTCHAR char33
ENCODING 33
SWIDTH 857 0
DWIDTH 6 0
BBX 1 6 2 0
BITMAP
80
80
80
80
00
80
ENDCHAR
STARTCHAR char34
ENCODING 34
SWIDTH 857 0
DWIDTH 6 0
BBX 3 2 1 4
BITMAP
A0
A0
ENDCHAR
STARTCHAR char35
ENCODING 35
SWIDTH 857 0
DWIDTH 6 0
BBX 5 5 0 0
BITMAP
50
F8
50
F8
50
ENDCHAR
STARTCHAR char36
ENCODING 36
SWIDTH 857 0
DWIDTH 6 0
BBX 5 7 0 -1
BITMAP
20
70
A0
70
28
70
20
ENDCHAR
STARTCHAR char37
ENCODING 37
SWIDTH 857 0
DWIDTH 6 0
BBX 5 6 0 0
BITMAP
C8
D0
20
20
58
98
ENDCHAR
STARTCHAR char38
ENCODING 38
SWIDTH 857 0
DWIDTH 6 0
BBX 5 6 0 0
BITMAP
40
A0
40
A8
90
68
ENDCHAR
STARTCHAR char39
ENCODING 39
SWIDTH 857 0
DWIDTH 6 0
BBX 1 2 2 4
BITMAP
80
80
ENDCHAR
STARTCHAR char40
ENCODING 40
SWIDTH 857 0
DWIDTH 6 0
BBX 3 7 1 -1
BITMAP
20
40
80
80
80
40
20
ENDCHAR
STARTCHAR char41
ENCODING 41
SWIDTH 857 0
DWIDTH 6 0
BBX 3 7 2 -1
BITMAP
80
40
20
20
20
40
80
ENDCHAR
STARTCHAR char42
ENCODING 42
SWIDTH 857 0
DWIDTH 6 0
BBX 5 5 0 0
BITMAP
20
F8
70
F8
20
ENDCHAR
STARTCHAR char43
ENCODING 43
SWIDTH 857 0
DWIDTH 6 0
BBX 5 5 0 0
BITMAP
20
20
F8
20
20
ENDCHAR
STARTCHAR char44
ENCODING 44
SWIDTH 857 0
DWIDTH 6 0
BBX 2 3 1 -1
BITMAP
40
40
80
ENDCHAR
STARTCHAR char45
ENCODING 45
SWIDTH 857 0
DWIDTH 6 0
BBX 5 1 0 3
BITMAP
F8
ENDCHAR
STARTCHAR char46
ENCODING 46
SWIDTH 857 0
DWIDTH 6 0
BBX 1 1 2 0
BITMAP
80
ENDCHAR
STARTCHAR char47
ENCODING 47
SWIDTH 857 0
DWIDTH 6 0
BBX 5 5 0 0
BITMAP
08
10
20
40
80
ENDCHAR
STARTCHAR char48
ENCODING 48
SWIDTH 857 0
DWIDTH 6 0
BBX 5 6 0 0
BITMAP
70
88
A8
A8
88
70
ENDCHAR
STARTCHAR char49
ENCODING 49
SWIDTH 857 0
DWIDTH 6 0
BBX 3 6 1 0
BITMAP
40
C0
40
40
40
E0
ENDCHAR
STARTCHAR char50
ENCODING 50
SWIDTH 857 0
DWIDTH 6 0
BBX 5 6 0 0
BITMAP
70
88
10
20
40
F8
ENDCHAR
STARTCHAR char51
ENCODING 51
SWIDTH 857 0
DWIDTH 6 0
BBX 5 6 0 0
BITMAP
70
88
30
08
88
70
ENDCHAR
STARTCHAR char52
ENCODING 52
SWIDTH 857 0
DWIDTH 6 0
BBX 5 6 0 0
BITMAP
10
30
50
90
F8
10
ENDCHAR
STARTCHAR char53
ENCODING 53
SWIDTH 857 0
DWIDTH 6 0
BBX 5 6 0 0
BITMAP
F8
80
F8
08
88
70
ENDCHAR
STARTCHAR char54
ENCODING 54
SWIDTH 857 0
DWIDTH 6 0
BBX 5 6 0 0
BITMAP
70
80
F0
88
88
70
ENDCHAR
STARTCHAR char55
ENCODING 55
SWIDTH 857 0
DWIDTH 6 0
BBX 5 6 0 0
BITMAP
F8
08
10
20
20
20
ENDCHAR
STARTCHAR char56
ENCODING 56
SWIDTH 857 0
DWIDTH 6 0
BBX 5 6 0 0
BITMAP
70
88
70
88
88
70
ENDCHAR
STARTCHAR char57
ENCODING 57
SWIDTH 857 0
DWIDTH 6 0
BBX 5 6 0 0
BITMAP
70
88
88
78
08
70
ENDCHAR
STARTCHAR char58
ENCODING 58
SWIDTH 857 0
DWIDTH 6 0
BBX 1 4 2 0
BITMAP
80
00
00
80
ENDCHAR
STARTCHAR char59
ENCODING 59
SWIDTH 857 0
DWIDTH 6 0
BBX 2 5 1 -1
BITMAP
40
00
00
40
80
ENDCHAR
STARTCHAR char60
ENCODING 60
SWIDTH 857 0
DWIDTH 6 0
BBX 3 5 1 0
BITMAP
20
40
80
40
20
ENDCHAR
STARTCHAR char61
ENCODING 61
SWIDTH 857 0
DWIDTH 6 0
BBX 5 3 0 1
BITMAP
F8
00
F8
ENDCHAR
STARTCHAR char62
ENCODING 62
SWIDTH 857 0
DWIDTH 6 0
BBX 3 5 1 0
BITMAP
80
40
20
40
80
ENDCHAR
STARTCHAR char63
ENCODING 63
SWIDTH 857 0
DWIDTH 6 0
BBX 5 6 0 0
BITMAP
70
88
10
20
00
20
ENDCHAR
STARTCHAR char64
ENCODING 64
SWIDTH 857 0
DWIDTH 6 0
BBX 5 6 0 0
BITMAP
70
88
A8
B8
80
70
ENDCHAR
STARTCHAR A
ENCODING 65
SWIDTH 857 0
DWIDTH 6 0
BBX 5 6 0 0
BITMAP
70
88
F8
88
88
88
ENDCHAR
STARTCHAR B
ENCODING 66
SWIDTH 857 0
DWIDTH 6 0
BBX 5 6 0 0
BITMAP
F0
88
F0
88
88
F0
ENDCHAR
STARTCHAR char67
ENCODING 67
SWIDTH 857 0
DWIDTH 6 0
BBX 5 6 0 0
BITMAP
70
88
80
80
88
70
ENDCHAR
STARTCHAR char68
ENCODING 68
SWIDTH 857 0
DWIDTH 6 0
BBX 5 6 0 0
BITMAP
F0
88
88
88
88
F0
ENDCHAR
STARTCHAR char69
ENCODING 69
SWIDTH 857 0
DWIDTH 6 0
BBX 5 6 0 0
BITMAP
F8
80
F0
80
80
F8
ENDCHAR
STARTCHAR char70
ENCODING 70
SWIDTH 857 0
DWIDTH 6 0
BBX 5 6 0 0
BITMAP
F8
80
F0
80
80
80
ENDCHAR
STARTCHAR char71
ENCODING 71
SWIDTH 857 0
DWIDTH 6 0
BBX 5 6 0 0
BITMAP
70
80
98
88
88
70
ENDCHAR
STARTCHAR char72
ENCODING 72
SWIDTH 857 0
DWIDTH 6 0
BBX 5 6 0 0
BITMAP
88
88
F8
88
88
88
ENDCHAR
STARTCHAR char73
ENCODING 73
SWIDTH 857 0
DWIDTH 6 0
BBX 3 6 1 0
BITMAP
E0
40
40
40
40
E0
ENDCHAR
STARTCHAR char74
ENCODING 74
SWIDTH 857 0
DWIDTH 6 0
BBX 4 6 0 0
BITMAP
70
20
20
20
20
C0
ENDCHAR
STARTCHAR char75
ENCODING 75
SWIDTH 857 0
DWIDTH 6 0
BBX 5 6 0 0
BITMAP
88
90
E0
90
88
88
ENDCHAR
STARTCHAR char76
ENCODING 76
SWIDTH 857 0
DWIDTH 6 0
BBX 5 6 0 0
BITMAP
80
80
80
80
80
F8
ENDCHAR
STARTCHAR char77
ENCODING 77
SWIDTH 857 0
DWIDTH 6 0
BBX 5 6 0 0
BITMAP
D8
A8
A8
88
88
88
ENDCHAR
STARTCHAR char78
ENCODING 78
SWIDTH 857 0
DWIDTH 6 0
BBX 5 6 0 0
BITMAP
88
C8
A8
98
88
88
ENDCHAR
STARTCHAR char79
ENCODING 79
SWIDTH 857 0
DWIDTH 6 0
BBX 5 6 0 0
BITMAP
70
88
88
88
88
70
ENDCHAR
STARTCHAR char80
ENCODING 80
SWIDTH 857 0
DWIDTH 6 0
BBX 5 6 0 0
BITMAP
F0
88
F0
80
80
80
ENDCHAR
STARTCHAR char81
ENCODING 81
SWIDTH 857 0
DWIDTH 6 0
BBX 5 6 0 0
BITMAP
70
88
88
A8
90
68
ENDCHAR
STARTCHAR char82
ENCODING 82
SWIDTH 857 0
DWIDTH 6 0
BBX 5 6 0 0
BITMAP
F0
88
F0
88
88
88
ENDCHAR
STARTCHAR char83
ENCODING 83
SWIDTH 857 0
DWIDTH 6 0
BBX 5 6 0 0
BITMAP
70
80
70
08
88
70
ENDCHAR
STARTCHAR char84
ENCODING 84
SWIDTH 857 0
DWIDTH 6 0
BBX 5 6 0 0
BITMAP
F8
20
20
20
20
20
ENDCHAR
STARTCHAR char85
ENCODING 85
SWIDTH 857 0
DWIDTH 6 0
BBX 5 6 0 0
BITMAP
88
88
88
88
88
70
ENDCHAR
STARTCHAR char86
ENCODING 86
SWIDTH 857 0
DWIDTH 6 0
BBX 5 6 0 0
BITMAP
88
88
88
88
50
20
ENDCHAR
STARTCHAR char87
ENCODING 87
SWIDTH 857 0
DWIDTH 6 0
BBX 5 6 0 0
BITMAP
88
88
88
A8
A8
50
ENDCHAR
STARTCHAR char88
ENCODING 88
SWIDTH 857 0
DWIDTH 6 0
BBX 5 6 0 0
BITMAP
88
50
20
50
88
88
ENDCHAR
STARTCHAR char89
ENCODING 89
SWIDTH 857 0
DWIDTH 6 0
BBX 5 6 0 0
BITMAP
88
88
50
20
20
20
ENDCHAR
STARTCHAR char90
ENCODING 90
SWIDTH 857 0
DWIDTH 6 0
BBX 5 6 0 0
BITMAP
F8
08
10
20
40
F8
ENDCHAR
STARTCHAR char91
ENCODING 91
SWIDTH 857 0
DWIDTH 6 0
BBX 3 6 1 0
BITMAP
E0
80
80
80
80
E0
ENDCHAR
STARTCHAR char92
ENCODING 92
SWIDTH 857 0
DWIDTH 6 0
BBX 5 5 0 0
BITMAP
80
40
20
10
08
ENDCHAR
STARTCHAR char93
ENCODING 93
SWIDTH 857 0
DWIDTH 6 0
BBX 3 6 1 0
BITMAP
E0
20
20
20
20
E0
ENDCHAR
STARTCHAR char94
ENCODING 94
SWIDTH 857 0
DWIDTH 6 0
BBX 3 2 1 4
BITMAP
40
A0
ENDCHAR
STARTCHAR char95
ENCODING 95
SWIDTH 857 0
DWIDTH 6 0
BBX 5 1 0 0
BITMAP
F8
ENDCHAR
STARTCHAR char96
ENCODING 96
SWIDTH 857 0
DWIDTH 6 0
BBX 2 2 3 4
BITMAP
80
40
ENDCHAR
STARTCHAR char97
ENCODING 97
SWIDTH 857 0
DWIDTH 6 0
BBX 5 5 0 0
BITMAP
70
08
78
88
78
ENDCHAR
STARTCHAR char98
ENCODING 98
SWIDTH 857 0
DWIDTH 6 0
BBX 5 6 0 0
BITMAP
80
F0
88
88
88
F0
ENDCHAR
STARTCHAR char99
ENCODING 99
SWIDTH 857 0
DWIDTH 6 0
BBX 4 5 0 0
BITMAP
70
80
80
80
70
ENDCHAR
STARTCHAR char100
ENCODING 100
SWIDTH 857 0
DWIDTH 6 0
BBX 5 6 0 0
BITMAP
08
78
88
88
88
78
ENDCHAR
STARTCHAR char101
ENCODING 101
SWIDTH 857 0
DWIDTH 6 0
BBX 5 5 0 0
BITMAP
70
88
F0
80
70
ENDCHAR
STARTCHAR char102
ENCODING 102
SWIDTH 857 0
DWIDTH 6 0
BBX 4 6 0 0
BITMAP
70
80
E0
80
80
80
ENDCHAR
STARTCHAR char103
ENCODING 103
SWIDTH 857 0
DWIDTH 6 0
BBX 5 6 0 -1
BITMAP
70
88
88
78
08
70
ENDCHAR
STARTCHAR char104
ENCODING 104
SWIDTH 857 0
DWIDTH 6 0
BBX 5 6 0 0
BITMAP
80
F0
88
88
88
88
ENDCHAR
STARTCHAR char105
ENCODING 105
SWIDTH 857 0
DWIDTH 6 0
BBX 1 6 2 0
BITMAP
80
00
80
80
80
80
ENDCHAR
STARTCHAR char106
ENCODING 106
SWIDTH 857 0
DWIDTH 6 0
BBX 2 7 2 -1
BITMAP
40
00
40
40
40
40
80
ENDCHAR
STARTCHAR char107
ENCODING 107
SWIDTH 857 0
DWIDTH 6 0
BBX 4 6 0 0
BITMAP
80
B0
C0
A0
90
90
ENDCHAR
STARTCHAR char108
ENCODING 108
SWIDTH 857 0
DWIDTH 6 0
BBX 2 6 2 0
BITMAP
80
80
80
80
80
40
ENDCHAR
STARTCHAR char109
ENCODING 109
SWIDTH 857 0
DWIDTH 6 0
BBX 5 5 0 0
BITMAP
D0
A8
A8
88
88
ENDCHAR
STARTCHAR char110
ENCODING 110
SWIDTH 857 0
DWIDTH 6 0
BBX 5 5 0 0
BITMAP
F0
88
88
88
88
ENDCHAR
STARTCHAR char111
ENCODING 111
SWIDTH 857 0
DWIDTH 6 0
BBX 5 5 0 0
BITMAP
70
88
88
88
70
ENDCHAR
STARTCHAR char112
ENCODING 112
SWIDTH 857 0
DWIDTH 6 0
BBX 5 6 0 -1
BITMAP
F0
88
88
88
F0
80
ENDCHAR
STARTCHAR char113
ENCODING 113
SWIDTH 857 0
DWIDTH 6 0
BBX 5 6 0 -1
BITMAP
78
88
88
88
78
08
ENDCHAR
STARTCHAR char114
ENCODING 114
SWIDTH 857 0
DWIDTH 6 0
BBX 4 5 0 0
BITMAP
B0
C0
80
80
80
ENDCHAR
STARTCHAR char115
ENCODING 115
SWIDTH 857 0
DWIDTH 6 0
BBX 5 5 0 0
BITMAP
70
80
70
08
70
ENDCHAR
STARTCHAR char116
ENCODING 116
SWIDTH 857 0
DWIDTH 6 0
BBX 3 6 1 0
BITMAP
40
E0
40
40
40
20
ENDCHAR
STARTCHAR char117
ENCODING 117
SWIDTH 857 0
DWIDTH 6 0
BBX 5 5 0 0
BITMAP
88
88
88
88
78
ENDCHAR
STARTCHAR char118
ENCODING 118
SWIDTH 857 0
DWIDTH 6 0
BBX 5 5 0 0
BITMAP
88
88
88
50
20
ENDCHAR
STARTCHAR char119
ENCODING 119
SWIDTH 857 0
DWIDTH 6 0
BBX 5 5 0 0
BITMAP
88
88
88
A8
50
ENDCHAR
STARTCHAR char120
ENCODING 120
SWIDTH 857 0
DWIDTH 6 0
BBX 5 5 0 0
BITMAP
88
50
20
50
88
ENDCHAR
STARTCHAR char121
ENCODING 121
SWIDTH 857 0
DWIDTH 6 0
BBX 5 6 0 -1
BITMAP
88
88
88
78
08
70
ENDCHAR
STARTCHAR char122
ENCODING 122
SWIDTH 857 0
DWIDTH 6 0
BBX 5 5 0 0
BITMAP
F8
10
20
40
F8
ENDCHAR
STARTCHAR char123
ENCODING 123
SWIDTH 857 0
DWIDTH 6 0
BBX 5 7 1 -1
BITMAP
18
20
20
C0
20
20
18
ENDCHAR
STARTCHAR char124
ENCODING 124
SWIDTH 857 0
DWIDTH 6 0
BBX 1 6 2 0
BITMAP
80
80
80
80
80
80
ENDCHAR
STARTCHAR char125
ENCODING 125
SWIDTH 857 0
DWIDTH 6 0
BBX 5 7 0 -1
BITMAP
C0
20
20
18
20
20
C0
ENDCHAR
STARTCHAR char126
ENCODING 126
SWIDTH 857 0
DWIDTH 6 0
BBX 4 2 1 4
BITMAP
50
A0
ENDCHAR
STARTCHAR uni007F
ENCODING 127
SWIDTH 857 0
DWIDTH 6 0
BBX 5 6 0 0
BITMAP
F8
88
88
88
88
F8
ENDCHAR
ENDFONT
